<svg xmlns="http://www.w3.org/2000/svg" viewBox="0 0 64 64" width="64" height="64">
<symbol id="logo" viewBox="0 0 64 64">
<defs><linearGradient id="g" x1="0" y1="0" x2="1" y2="1"><stop offset="0" stop-color="#f59e0b"/><stop offset="1" stop-color="#ef4444"/></linearGradient></defs>
<rect x="2" y="2" width="60" height="60" rx="16" fill="url(#g)"/>
<path d="M14 18h26a6 6 0 0 1 6 6v10a6 6 0 0 1-6 6H24l-8 6v-6h-2a6 6 0 0 1-6-6V24a6 6 0 0 1 6-6z" fill="#fff"/>
<path d="M30 30h20a5 5 0 0 1 5 5v8a5 5 0 0 1-5 5h-2v5l-7-5H30a5 5 0 0 1-5-5v-8a5 5 0 0 1 5-5z" fill="#fff" fill-opacity=".75"/>
<circle cx="22" cy="29" r="2.4" fill="#ef4444"/><circle cx="29" cy="29" r="2.4" fill="#ef4444"/><circle cx="36" cy="29" r="2.4" fill="#ef4444"/>
</symbol>
<use href="#logo"/>
</svg>
